<svg xmlns="http://www.w3.org/2000/svg" width="29" height="29" fill="none"><g clip-path="url(#a)"><path d="M28.213.985c.572.378.872 1.032.765 1.686l-3.625 22.478a1.73 1.73 0 0 1-.907 1.243c-.487.26-1.07.291-1.586.086l-7.153-2.837-2.272 4.026c-.294.524-.923.789-1.529.643-.606-.146-1.03-.665-1.03-1.26v-5.186c0-.287.101-.568.288-.795l9.363-11.487c.142-.384-.368-.773-.736-.454L9.65 17.876 7.84 19.437a1.878 1.878 0 0 1-1.914.314L1.11 17.838c-.634-.254-1.064-.827-1.104-1.486-.04-.659.311-1.28.912-1.61L26.293.909a1.892 1.892 0 0 1 1.926.076h-.006Z" fill="#fff"/></g><defs><clipPath id="a"><path fill="#fff" transform="translate(0 .683)" d="M0 0h29v27.665H0z"/></clipPath></defs></svg>